@startuml
    class Payment {
        + id: int
        + order_id: int
        + user_id: int
        + total_amount: float
        + is_paid: bool
    }

    class WritePayment {
        + create_payment(int, int, float) : int
        + update_status_to_paid(int) : JSONObject
    }

    class ReadPayment {
        + get_payment_by_id(int) : Payment
    }

    class PaymentController {
        + get_payment(int) : Payment
        + add_payment(RequestBody) : JSONObject
        + process_payment(int, JSONObject) : JSONObject
        + process_credit_card_payment(JSONObject) : void
    }

    class PaymentService {
        + post_add_payment() : Payment
        + post_process_payment(int) : JSONObject
        + get_payment_details(int) : JSONObject
    }

    WritePayment --> Payment
    PaymentController --> WritePayment
    PaymentController --> ReadPayment
    PaymentService --> PaymentController
@enduml
